<?xml version="1.0" standalone="no"?>
<!DOCTYPE svg PUBLIC "-//W3C//DTD SVG 1.1//EN" "http://www.w3.org/Graphics/SVG/1.1/DTD/svg11.dtd" >
<svg xmlns="http://www.w3.org/2000/svg">
<metadata>Generated by IcoMoon</metadata>
<defs>
<font id="claraluna" horiz-adv-x="1024">
<font-face units-per-em="1024" ascent="960" descent="-64" />
<missing-glyph horiz-adv-x="1024" />
<glyph unicode="&#x20;" horiz-adv-x="512" d="" />
<glyph unicode="&#xe900;" glyph-name="close" d="M632.715 443.837l366.309 374.634c33.301 33.301 33.301 83.252 0 116.553s-83.252 33.301-116.553 0l-366.309-366.309-374.634 366.309c-33.301 33.301-83.252 33.301-116.553 0s-33.301-83.252 0-116.553l374.634-374.634-374.634-374.634c-33.301-33.301-33.301-83.252 0-116.553 16.65-16.65 41.626-24.976 58.276-24.976s41.626 8.325 58.276 24.976l374.634 374.634 374.634-374.634c16.65-16.65 41.626-24.976 58.276-24.976s41.626 8.325 58.276 24.976c33.301 33.301 33.301 83.252 0 116.553l-374.634 374.634z" />
<glyph unicode="&#xe901;" glyph-name="share" d="M969.153 503.122c-30.291 0-54.847-24.556-54.847-54.847v-402.031h-804.611v804.062h393.804c30.291 0 54.847 24.556 54.847 54.847s-24.556 54.847-54.847 54.847h-448.651c-30.291 0-54.847-24.556-54.847-54.847v-914.305c0-30.291 24.556-54.847 54.847-54.847h914.305c30.291 0 54.847 24.556 54.847 54.847v457.427c0 30.291-24.556 54.847-54.847 54.847zM1019.612 925.995c-8.391 20.041-27.794 33.889-50.445 34.005h-274.252c-30.291 0-54.847-24.556-54.847-54.847s24.556-54.847 54.847-54.847h142.603l-364.186-363.638c-16.215-9.727-26.899-27.212-26.899-47.192 0-30.291 24.556-54.847 54.847-54.847 19.98 0 37.465 10.684 47.054 26.65l363.776 363.886v-144.249c0-30.291 24.556-54.847 54.847-54.847s54.847 24.556 54.847 54.847v274.237c0.133 1.434 0.209 3.101 0.209 4.785 0 5.729-0.879 11.254-2.508 16.445z" />
<glyph unicode="&#xe902;" glyph-name="heart-fill" horiz-adv-x="1094" d="M791.273 960c-98.909 0-192-46.545-244.364-122.182-52.364 75.636-145.455 122.182-244.364 122.182-168.727 0-302.545-133.818-302.545-302.545 0-290.909 459.636-669.091 512-709.818 11.636-5.818 23.273-11.636 34.909-11.636s23.273 5.818 34.909 11.636c52.364 40.727 512 418.909 512 709.818 0 168.727-133.818 302.545-302.545 302.545z" />
<glyph unicode="&#xe903;" glyph-name="heart" horiz-adv-x="1094" d="M546.909-64c-11.636 0-23.273 5.818-34.909 11.636-52.364 40.727-512 418.909-512 709.818 0 168.727 133.818 302.545 302.545 302.545 98.909 0 192-46.545 244.364-122.182 58.182 75.636 145.455 122.182 244.364 122.182 168.727 0 302.545-133.818 302.545-302.545 0-290.909-459.636-669.091-512-709.818-11.636-5.818-23.273-11.636-34.909-11.636zM302.545 843.636c-104.727 0-186.182-81.455-186.182-186.182 0-180.364 285.091-459.636 430.545-587.636 145.455 128 430.545 407.273 430.545 587.636 0 104.727-81.455 186.182-186.182 186.182s-186.182-81.455-186.182-186.182c0-34.909-23.273-58.182-58.182-58.182s-58.182 23.273-58.182 58.182c0 104.727-81.455 186.182-186.182 186.182z" />
<glyph unicode="&#xe904;" glyph-name="grid" d="M88.159 783.682v0c-47.47 0-88.159 40.689-88.159 88.159v0c0 47.47 40.689 88.159 88.159 88.159v0c47.47 0 88.159-40.689 88.159-88.159v0c0-47.47-40.689-88.159-88.159-88.159zM508.609 783.682v0c-47.47 0-88.159 40.689-88.159 88.159v0c0 47.47 40.689 88.159 88.159 88.159v0c47.47 0 88.159-40.689 88.159-88.159v0c6.781-47.47-33.907-88.159-88.159-88.159zM935.841 783.682v0c-47.47 0-88.159 40.689-88.159 88.159v0c-6.781 47.47 33.907 88.159 88.159 88.159v0c47.47 0 88.159-40.689 88.159-88.159v0c0-47.47-40.689-88.159-88.159-88.159zM88.159 356.45v0c-47.47 0-88.159 40.689-88.159 94.94v0c0 47.47 40.689 88.159 88.159 88.159v0c47.47 0 88.159-40.689 88.159-88.159v0c0-54.252-40.689-94.94-88.159-94.94zM508.609 356.45v0c-47.47 0-88.159 40.689-88.159 88.159v0c0 47.47 40.689 88.159 88.159 88.159v0c47.47 0 88.159-40.689 88.159-88.159v0c6.781-47.47-33.907-88.159-88.159-88.159zM935.841 356.45v0c-47.47 0-88.159 40.689-88.159 88.159v0c0 47.47 40.689 88.159 88.159 88.159v0c47.47 0 88.159-40.689 88.159-88.159v0c0-47.47-40.689-88.159-88.159-88.159zM88.159-64v0c-47.47 0-88.159 40.689-88.159 88.159v0c0 47.47 40.689 88.159 88.159 88.159v0c47.47 0 88.159-40.689 88.159-88.159v0c0-47.47-40.689-88.159-88.159-88.159zM508.609-64v0c-47.47 0-88.159 40.689-88.159 88.159v0c0 47.47 40.689 88.159 88.159 88.159v0c47.47 0 88.159-40.689 88.159-88.159v0c6.781-47.47-33.907-88.159-88.159-88.159zM935.841-64v0c-47.47 0-88.159 40.689-88.159 88.159v0c0 47.47 40.689 88.159 88.159 88.159v0c47.47 0 88.159-40.689 88.159-88.159v0c0-47.47-40.689-88.159-88.159-88.159z" />
<glyph unicode="&#xe905;" glyph-name="arrow-up" horiz-adv-x="2317" d="M0 70.737c0-26.947 13.474-53.895 26.947-80.842 40.421-53.895 134.737-67.368 188.632-26.947l943.158 687.158 943.158-687.158c53.895-40.421 148.211-26.947 188.632 26.947s26.947 148.211-26.947 188.632l-1024 754.526c-53.895 40.421-107.789 40.421-161.684 0l-1024-754.526c-40.421-26.947-53.895-67.368-53.895-107.789z" />
<glyph unicode="&#xe906;" glyph-name="arrow-down" horiz-adv-x="2317" d="M2317.474 825.263c0 26.947-13.474 53.895-26.947 80.842-40.421 53.895-134.737 67.368-188.632 26.947l-943.158-687.158-943.158 687.158c-67.368 40.421-148.211 26.947-188.632-26.947-40.421-67.368-26.947-148.211 26.947-188.632l1024-754.526c53.895-40.421 107.789-40.421 161.684 0l1024 754.526c26.947 26.947 53.895 67.368 53.895 107.789z" />
<glyph unicode="&#xe907;" glyph-name="arrow-left" horiz-adv-x="452" d="M392.93-64c11.907 0 23.814 5.953 35.721 11.907 23.814 17.86 29.767 59.535 11.907 83.349l-303.628 416.744 303.628 416.744c17.86 23.814 11.907 65.488-11.907 83.349-29.767 17.86-65.488 11.907-83.349-11.907l-333.395-452.465c-17.86-23.814-17.86-47.628 0-71.442l333.395-452.465c11.907-11.907 29.767-23.814 47.628-23.814z" />
<glyph unicode="&#xe908;" glyph-name="arrow-right" horiz-adv-x="452" d="M59.535-64c-11.907 0-23.814 5.953-35.721 11.907-23.814 17.86-29.767 59.535-11.907 83.349l303.628 416.744-303.628 416.744c-17.86 29.767-11.907 65.488 11.907 83.349 29.767 17.86 65.488 11.907 83.349-11.907l333.395-452.465c17.86-23.814 17.86-47.628 0-71.442l-333.395-452.465c-11.907-11.907-29.767-23.814-47.628-23.814z" />
<glyph unicode="&#xe909;" glyph-name="pin" horiz-adv-x="814" d="M407.082 960c-226.623 0-407.082-180.459-407.082-407.082 0-214.033 339.934-562.361 377.705-604.328 8.393-8.393 16.787-12.59 29.377-12.59s20.984 4.197 29.377 12.59c37.77 37.77 377.705 390.295 377.705 604.328 0 226.623-184.656 407.082-407.082 407.082zM407.082 40.918c-113.311 121.705-323.148 373.508-323.148 512 0 180.459 142.689 323.148 323.148 323.148 176.262 0 323.148-142.689 323.148-323.148 0-138.492-209.836-390.295-323.148-512zM407.082 741.77c-71.344 0-130.098-58.754-130.098-130.098s58.754-130.098 130.098-130.098c71.344 0 130.098 58.754 130.098 130.098s-58.754 130.098-130.098 130.098zM407.082 565.508c-25.18 0-46.164 20.984-46.164 46.164s20.984 46.164 46.164 46.164 46.164-20.984 46.164-46.164-20.984-46.164-46.164-46.164z" />
<glyph unicode="&#xe90a;" glyph-name="eye" horiz-adv-x="1392" d="M1391.735 445.171c0 5.657 0 5.657 0 11.315s0 5.657 0 11.315c0 0 0 0 0 0-11.315 22.63-231.956 492.199-695.867 492.199s-678.895-469.569-690.21-492.199c0 0 0 0 0 0 0-5.657 0-5.657 0-11.315-5.657-5.657-5.657-5.657-5.657-11.315s0-5.657 0-11.315 0-5.657 0-11.315c0 0 0 0 0 0 11.315-22.63 226.298-492.199 690.21-492.199s684.552 469.569 690.21 492.199c0 0 0 0 0 0 0 5.657 0 5.657 0 11.315 11.315 5.657 11.315 11.315 11.315 11.315zM695.867 49.149c-333.79 0-526.144 311.16-577.061 401.68 50.917 84.862 243.271 396.022 577.061 396.022s526.144-311.16 577.061-401.68c-45.26-84.862-237.613-396.022-577.061-396.022zM695.867 173.613c-152.751 0-271.558 124.464-271.558 271.558 0 152.751 124.464 271.558 271.558 271.558 152.751 0 271.558-124.464 271.558-271.558 5.657-147.094-118.807-271.558-271.558-271.558zM695.867 609.238c-90.519 0-158.409-73.547-158.409-158.409s73.547-158.409 158.409-158.409 158.409 73.547 158.409 158.409-67.89 158.409-158.409 158.409z" />
<glyph unicode="&#xe90b;" glyph-name="youtube" horiz-adv-x="1440" d="M1432 568c0 32 0 64-8 112s-8 80-16 120c-8 40-24 72-56 96s-64 40-96 48c-120 8-296 16-536 16s-424-8-536-24c-40 0-72-16-104-40-24-32-48-64-56-104-8-32-16-72-16-112-8-48-8-80-8-112s0-72 0-120c0-48 0-88 0-120s0-64 8-112c8-48 8-80 16-120 8-32 24-72 56-96s64-40 96-48c120-8 304-16 544-16s416 8 536 24c40 8 72 16 96 48 32 24 48 56 56 96 8 32 16 72 16 120 8 48 8 80 8 112s0 72 0 120c8 40 8 80 0 112zM1000 400l-408-256c-8-8-16-8-24-8s-16 0-24 8-24 24-24 48v512c0 24 8 32 24 48 16 8 32 8 56 0l408-256c16-8 24-24 24-40-8-32-16-40-32-56z" />
<glyph unicode="&#xe90c;" glyph-name="twitter" horiz-adv-x="1260" d="M1259.741 842.129c-51.568-22.101-95.77-36.835-147.338-36.835 58.935 36.835 95.77 81.036 110.504 139.971-51.568-29.468-103.137-51.568-162.072-58.935-51.568 44.201-110.504 73.669-191.54 73.669-73.669 0-132.604-22.101-184.173-73.669s-73.669-110.504-73.669-184.173c0-22.101 0-36.835 7.367-58.935-103.137 7.367-206.273 29.468-294.676 81.036-95.77 44.201-169.439 110.504-235.741 191.54-22.101-44.201-36.835-88.403-36.835-132.604s7.367-88.403 29.468-125.237c22.101-36.835 51.568-66.302 88.403-88.403-44.201 0-81.036 14.734-117.871 29.468v0c0-58.935 22.101-117.871 58.935-162.072s88.403-73.669 147.338-88.403c-22.101-7.367-44.201-14.734-66.302-14.734-14.734 0-29.468 0-51.568 7.367 14.734-51.568 44.201-95.77 88.403-125.237 44.201-36.835 95.77-51.568 147.338-51.568-95.77-73.669-198.906-110.504-324.144-110.504-22.101 0-44.201 0-58.935 0 117.871-73.669 250.475-117.871 397.813-117.871 88.403 0 176.806 14.734 257.842 44.201s147.338 66.302 206.273 117.871c58.935 51.568 103.137 103.137 147.338 169.439s73.669 132.604 95.77 198.906c22.101 66.302 29.468 139.971 29.468 206.273 0 14.734 0 29.468 0 36.835 51.568 29.468 95.77 73.669 132.604 132.604z" />
<glyph unicode="&#xe90d;" glyph-name="instagram" d="M1019.449 659.627c-4.551 54.613-9.102 91.022-22.756 122.88s-31.858 63.716-59.164 91.022c-27.307 27.307-59.164 45.511-91.022 59.164s-68.267 22.756-122.88 22.756c-54.613 4.551-72.818 4.551-209.351 4.551s-159.289 0-213.902-4.551c-54.613-4.551-91.022-9.102-122.88-22.756s-63.716-31.858-91.022-59.164c-27.307-27.307-45.511-59.164-59.164-91.022s-22.756-68.267-22.756-122.88c-4.551-54.613-4.551-72.818-4.551-213.902s0-154.738 4.551-209.351c4.551-54.613 9.102-91.022 22.756-122.88s31.858-63.716 59.164-91.022c27.307-27.307 59.164-45.511 91.022-59.164s68.267-22.756 122.88-22.756c54.613-4.551 72.818-4.551 209.351-4.551s154.738 0 209.351 4.551c54.613 4.551 91.022 9.102 122.88 22.756s63.716 31.858 91.022 59.164c27.307 27.307 45.511 59.164 59.164 91.022s22.756 68.267 22.756 122.88c4.551 54.613 4.551 72.818 4.551 209.351 4.551 141.084 4.551 159.289 0 213.902zM928.427 240.924c-4.551-50.062-9.102-77.369-18.204-95.573-9.102-22.756-18.204-40.96-36.409-59.164s-36.409-27.307-59.164-36.409c-18.204-9.102-45.511-13.653-95.573-18.204-54.613-4.551-68.267-4.551-204.8-4.551s-154.738 0-204.8 4.551c-54.613 0-81.92 9.102-100.124 18.204-22.756 9.102-40.96 18.204-59.164 36.409s-27.307 36.409-36.409 59.164c-9.102 18.204-13.653 45.511-18.204 95.573-4.551 54.613-4.551 68.267-4.551 204.8s0 154.738 4.551 204.8c0 54.613 9.102 81.92 18.204 100.124 9.102 22.756 18.204 40.96 36.409 59.164s36.409 27.307 59.164 36.409c18.204 9.102 45.511 13.653 95.573 18.204 54.613 4.551 72.818 4.551 209.351 4.551s154.738 0 204.8-4.551c50.062-4.551 77.369-9.102 95.573-18.204 22.756-9.102 40.96-18.204 59.164-36.409s27.307-36.409 36.409-59.164c9.102-18.204 13.653-45.511 18.204-95.573 4.551-54.613 4.551-68.267 4.551-204.8 0-141.084 0-154.738-4.551-209.351zM514.276 709.689c-145.636 0-263.964-118.329-263.964-263.964s118.329-263.964 263.964-263.964 263.964 118.329 263.964 263.964c-4.551 145.636-122.88 263.964-263.964 263.964zM514.276 277.333c-95.573 0-172.942 77.369-172.942 172.942s77.369 172.942 172.942 172.942 168.391-81.92 168.391-177.493c0-91.022-77.369-168.391-168.391-168.391zM851.058 723.342c0-35.189-28.526-63.716-63.716-63.716s-63.716 28.526-63.716 63.716c0 35.189 28.526 63.716 63.716 63.716s63.716-28.526 63.716-63.716z" />
<glyph unicode="&#xe90e;" glyph-name="facebook" horiz-adv-x="531" d="M363.005 770.37c10.836 10.836 37.926 21.672 70.434 21.672h97.524v162.54c-32.508 5.418-81.27 5.418-140.868 5.418-70.434 0-124.614-21.672-167.958-65.016-43.344-37.926-65.016-97.524-65.016-173.376v-135.45h-157.122v-184.212h157.122v-465.947h189.63v465.947h157.122l21.672 184.212h-178.794v113.778c0 32.508 5.418 54.18 16.254 70.434z" />
<glyph unicode="&#xe90f;" glyph-name="book-apt" horiz-adv-x="858" d="M820.679 793.646h-188.534v129.386c0 22.181-14.787 36.968-36.968 36.968s-36.968-14.787-36.968-36.968v-129.386h-258.773v129.386c0 22.181-14.787 36.968-36.968 36.968s-36.968-14.787-36.968-36.968v-129.386h-188.534c-22.181 0-36.968-14.787-36.968-36.968v-783.71c0-22.181 14.787-36.968 36.968-36.968h602.569c11.090 0 18.484 3.697 25.877 11.090l181.141 181.141c7.394 7.394 11.090 14.787 11.090 25.877v602.569c0 22.181-14.787 36.968-36.968 36.968zM73.935 719.711h151.567v-92.419c0-22.181 14.787-36.968 36.968-36.968s36.968 14.787 36.968 36.968v92.419h255.076v-92.419c0-22.181 14.787-36.968 36.968-36.968s36.968 14.787 36.968 36.968v92.419h151.567v-484.274h-188.534c-22.181 0-36.968-14.787-36.968-36.968v-192.231h-480.578v713.472zM632.144 17.329v147.87h144.173l-144.173-147.87zM598.874 405.487c0 51.755-40.664 92.419-92.419 92.419-29.574 0-59.148-14.787-73.935-36.968-18.484 22.181-44.361 36.968-73.935 36.968-55.451 3.697-99.812-40.664-99.812-92.419 0-88.722 140.477-207.018 158.96-218.108 3.697-3.697 7.394-3.697 11.090-3.697s7.394 0 11.090 3.697c18.484 11.090 158.96 129.386 158.96 218.108z" />
<glyph unicode="&#xe910;" glyph-name="burger" horiz-adv-x="1417" d="M1331.2 362.667h-1245.867c-51.2 0-85.333 34.133-85.333 85.333s34.133 85.333 85.333 85.333h1245.867c51.2 0 85.333-34.133 85.333-85.333s-34.133-85.333-85.333-85.333zM1331.2-64h-1245.867c-51.2 0-85.333 34.133-85.333 85.333s34.133 85.333 85.333 85.333h1245.867c51.2 0 85.333-34.133 85.333-85.333s-34.133-85.333-85.333-85.333zM1331.2 789.333h-1245.867c-51.2 0-85.333 34.133-85.333 85.333s34.133 85.333 85.333 85.333h1245.867c51.2 0 85.333-34.133 85.333-85.333s-34.133-85.333-85.333-85.333z" />
<glyph unicode="&#xe911;" glyph-name="collection-page" horiz-adv-x="1162" d="M446.531 318.741h-402.885c-23.502 0-40.289 20.144-40.289 40.289v446.531c0 23.502 20.144 40.289 40.289 40.289h402.885c23.502 0 40.289-20.144 40.289-40.289v-446.531c0-23.502-16.787-40.289-40.289-40.289zM83.934 402.675h318.951v362.597h-318.951v-362.597zM446.531-64c-23.502 0-40.289 20.144-40.289 40.289v70.505h-322.308v-70.505c0-23.502-20.144-40.289-40.289-40.289s-43.646 20.144-43.646 40.289v110.793c0 23.502 20.144 40.289 40.289 40.289h402.885c23.502 0 40.289-20.144 40.289-40.289v-110.793c3.357-20.144-13.43-40.289-36.931-40.289zM1118.007 46.793h-402.885c-23.502 0-40.289 20.144-40.289 40.289v449.889c0 23.502 20.144 40.289 40.289 40.289h402.885c23.502 0 40.289-20.144 40.289-40.289v-446.531c3.357-23.502-16.787-43.646-40.289-43.646zM758.767 130.728h318.951v362.597h-318.951v-362.597zM1118.007 765.272h-402.885c-23.502 0-40.289 20.144-40.289 40.289v110.793c0 23.502 20.144 40.289 40.289 40.289s40.289-20.144 40.289-40.289v-70.505h318.951v70.505c0 23.502 20.144 40.289 40.289 40.289s40.289-20.144 40.289-40.289v-110.793c6.715-23.502-13.43-40.289-36.931-40.289z" />
<glyph unicode="&#xe912;" glyph-name="collection-page2" horiz-adv-x="460" d="M398.821 834.246v0c-35.93 0-64.674 28.744-64.674 64.674v0c0 35.93 28.744 64.674 64.674 64.674v0c35.93 0 64.674-28.744 64.674-64.674v0c-3.593-35.93-28.744-64.674-64.674-64.674zM398.821 532.435v0c-35.93 0-64.674 28.744-64.674 64.674v0c0 35.93 28.744 64.674 64.674 64.674v0c35.93 0 64.674-28.744 64.674-64.674v0c-3.593-35.93-28.744-64.674-64.674-64.674zM398.821 234.218v0c-35.93 0-64.674 28.744-64.674 64.674v0c0 35.93 28.744 64.674 64.674 64.674v0c35.93 0 64.674-28.744 64.674-64.674v0c-3.593-35.93-28.744-64.674-64.674-64.674zM64.674 532.435v0c-35.93 0-64.674 28.744-64.674 64.674v0c0 35.93 28.744 64.674 64.674 64.674v0c35.93 0 64.674-28.744 64.674-64.674v0c-3.593-35.93-32.337-64.674-64.674-64.674zM64.674 234.218v0c-35.93 0-64.674 28.744-64.674 64.674v0c0 35.93 28.744 64.674 64.674 64.674v0c35.93 0 64.674-28.744 64.674-64.674v0c-3.593-35.93-32.337-64.674-64.674-64.674zM64.674-64v0c-35.93 0-64.674 28.744-64.674 64.674v0c0 35.93 28.744 64.674 64.674 64.674v0c35.93 0 64.674-28.744 64.674-64.674v0c-3.593-39.523-32.337-64.674-64.674-64.674z" />
<glyph unicode="&#xe913;" glyph-name="dots" d="M107.276 360.229v0c-48.762 0-87.771 39.010-87.771 87.771v0c0 48.762 39.010 87.771 87.771 87.771v0c48.762 0 87.771-39.010 87.771-87.771v0c-4.876-48.762-43.886-87.771-87.771-87.771zM512 360.229v0c-48.762 0-87.771 39.010-87.771 87.771v0c0 48.762 39.010 87.771 87.771 87.771v0c48.762 0 87.771-39.010 87.771-87.771v0c0-48.762-39.010-87.771-87.771-87.771zM916.724 360.229v0c-48.762 0-87.771 39.010-87.771 87.771v0c0 48.762 39.010 87.771 87.771 87.771v0c48.762 0 87.771-39.010 87.771-87.771v0c0-48.762-39.010-87.771-87.771-87.771z" />
<glyph unicode="&#xe914;" glyph-name="pinterest" horiz-adv-x="788" d="M0 593.955c0 46.335 9.267 88.036 23.167 125.104s37.068 74.136 64.869 101.937c27.801 27.801 60.235 55.602 92.67 74.136s74.136 37.068 115.837 46.335c37.068 13.9 78.769 18.534 120.471 18.534 64.869 0 125.104-13.9 180.706-41.701s101.937-64.869 134.371-120.471c41.701-50.968 55.602-111.204 55.602-176.072 0-41.701-4.633-78.769-13.9-115.837s-18.534-74.136-37.068-111.204c-18.534-37.068-37.068-64.869-60.235-92.67s-55.602-46.335-88.036-64.869c-32.434-9.267-74.136-18.534-115.837-18.534-27.801 0-55.602 4.633-83.403 18.534s-46.335 32.434-60.235 55.602c-4.633-13.9-9.267-37.068-18.534-69.502s-13.9-50.968-13.9-60.235c0-9.267-4.633-23.167-13.9-41.701-4.633-18.534-9.267-37.068-13.9-41.701-4.633-9.267-9.267-23.167-18.534-37.068-9.267-18.534-18.534-32.434-27.801-46.335s-23.167-32.434-37.068-55.602l-9.267-4.633-4.633 4.633c-4.633 64.869-9.267 101.937-9.267 115.837 0 37.068 4.633 78.769 13.9 125.104s23.167 106.57 41.701 176.072c18.534 69.502 27.801 111.204 32.434 125.104-18.534 27.801-23.167 64.869-23.167 106.57 0 32.434 9.267 64.869 32.434 97.303 23.167 27.801 46.335 46.335 83.403 46.335 23.167 0 46.335-9.267 60.235-23.167 13.9-18.534 23.167-37.068 23.167-64.869s-9.267-64.869-27.801-115.837c-18.534-50.968-27.801-88.036-27.801-115.837s9.267-46.335 27.801-64.869c18.534-18.534 41.701-27.801 64.869-27.801s41.701 4.633 64.869 13.9c18.534 9.267 37.068 23.167 46.335 41.701 13.9 18.534 23.167 37.068 32.434 60.235s18.534 46.335 23.167 69.502c4.633 23.167 9.267 46.335 13.9 69.502s4.633 41.701 4.633 60.235c0 69.502-23.167 125.104-69.502 166.805s-101.937 60.235-176.072 60.235c-83.403 0-152.905-27.801-203.873-78.769-55.602-55.602-83.403-125.104-83.403-208.507 0-18.534 4.633-37.068 9.267-50.968s9.267-27.801 13.9-41.701c4.633-9.267 9.267-18.534 18.534-27.801 4.633-9.267 9.267-13.9 9.267-18.534 0-9.267-4.633-27.801-9.267-46.335s-13.9-27.801-23.167-27.801c0 0-4.633 0-9.267 0-23.167 4.633-41.701 18.534-55.602 32.434-18.534 18.534-27.801 37.068-37.068 60.235s-13.9 46.335-18.534 64.869c-13.9 27.801-13.9 50.968-13.9 74.136z" />
<glyph unicode="&#xe915;" glyph-name="google-plus" horiz-adv-x="1607" d="M1005.382 438.691c0-99.297-18.618-179.976-62.061-260.655-43.442-74.473-99.297-136.533-173.77-179.976s-161.358-62.061-254.448-62.061c-68.267 0-136.533 12.412-198.594 43.442-62.061 24.824-117.915 62.061-161.358 111.709-43.442 43.442-80.679 99.297-111.709 161.358s-43.442 124.121-43.442 198.594c0 68.267 12.412 130.327 43.442 198.594 24.824 62.061 62.061 117.915 111.709 161.358 37.236 43.442 93.091 80.679 155.152 105.503 68.267 31.030 130.327 43.442 198.594 43.442 130.327 0 248.242-43.442 341.333-136.533l-136.533-130.327c-55.855 49.648-117.915 80.679-204.8 80.679-55.855 0-105.503-18.618-155.152-43.442-49.648-31.030-86.885-68.267-117.915-117.915-24.824-49.648-43.442-105.503-43.442-161.358s12.412-111.709 43.442-161.358c31.030-49.648 68.267-86.885 117.915-117.915s99.297-43.442 161.358-43.442c37.236 0 74.473 6.206 105.503 18.618s55.855 24.824 80.679 37.236c18.618 18.618 37.236 37.236 55.855 55.855s24.824 37.236 37.236 55.855c6.206 18.618 12.412 37.236 12.412 49.648h-297.891v173.77h484.073c6.206-24.824 12.412-55.855 12.412-80.679zM1607.37 519.37v-142.739h-142.739v-148.945h-148.945v148.945h-148.945v142.739h148.945v148.945h148.945v-148.945z" />
<glyph unicode="&#xe916;" glyph-name="reserved-area" horiz-adv-x="894" d="M457.421 466.193h-20.792c-98.761 0-181.929 83.168-181.929 181.929v129.949c0 98.761 83.168 181.929 181.929 181.929h20.792c98.761 0 181.929-83.168 181.929-181.929v-129.949c0-98.761-83.168-181.929-181.929-181.929zM436.629 856.041c-41.584 0-77.97-36.386-77.97-77.97v-129.949c0-41.584 36.386-77.97 77.97-77.97h20.792c41.584 0 77.97 36.386 77.97 77.97v129.949c0 41.584-36.386 77.97-77.97 77.97h-20.792zM831.675-64h-769.299c-31.188 0-62.376 25.99-62.376 62.376v192.325c0 103.959 83.168 187.127 187.127 187.127h514.599c103.959 0 187.127-83.168 187.127-187.127v-192.325c5.198-36.386-25.99-62.376-57.178-62.376zM103.959 39.959h686.132v150.741c0 46.782-36.386 83.168-83.168 83.168h-519.797c-46.782 0-83.168-41.584-83.168-88.365v-145.543z" />
<glyph unicode="&#xe917;" glyph-name="rotate" horiz-adv-x="801" d="M684.284 731.905c-58.237 58.237-135.886 97.062-218.389 111.621l33.972 38.825c19.412 19.412 14.559 48.531-4.853 67.943s-48.531 14.559-67.943-4.853l-101.915-116.474c0 0 0 0 0 0s0 0 0 0c0-4.853-4.853-4.853-4.853-9.706 0 0-4.853-4.853-4.853-4.853s0 0 0 0c0-4.853 0-4.853 0-9.706s0-4.853 0-9.706c0 0 0 0 0 0s0 0 0 0c0-4.853 0-4.853 0-4.853 0-4.853 0-4.853 4.853-9.706 0 0 0 0 0 0s0 0 0 0l72.796-126.18c14.559-19.412 29.118-29.118 43.678-29.118 9.706 0 19.412 0 24.265 4.853 24.265 14.559 29.118 43.678 14.559 67.943l-29.118 48.531c63.090-9.706 121.327-38.825 165.005-82.502 116.474-116.474 116.474-310.597 0-431.924-19.412-19.412-19.412-48.531 0-67.943 9.706-9.706 24.265-14.559 33.972-14.559s24.265 4.853 33.972 14.559c160.152 155.299 160.152 412.512 4.853 567.81zM485.308 81.592c0 4.853 0 4.853 0 9.706s0 4.853 0 9.706c0 0 0 0 0 0s0 0 0 0c0 4.853 0 4.853 0 4.853 0 4.853 0 4.853-4.853 9.706 0 0 0 0 0 0s0 0 0 0l-72.796 126.18c-14.559 24.265-43.678 29.118-67.943 14.559s-29.118-43.678-14.559-67.943l29.118-48.531c-63.090 19.412-121.327 48.531-169.858 92.209-116.474 116.474-116.474 310.597 0 431.924 19.412 19.412 19.412 48.531 0 67.943s-48.531 19.412-67.943 0c-155.299-155.299-155.299-412.512 0-567.81 58.237-58.237 135.886-97.062 218.389-111.621l-33.972-38.825c-19.412-19.412-14.559-48.531 4.853-67.943 9.706-9.706 19.412-14.559 33.972-14.559s24.265 4.853 33.972 14.559l101.915 111.621c0 0 0 0 0 0s0 0 0 0 4.853 4.853 4.853 9.706c0 9.706 4.853 9.706 4.853 14.559 0 0 0 0 0 0z" />
<glyph unicode="&#xe918;" glyph-name="lens" horiz-adv-x="1034" d="M1019.053 20.097l-277.024 281.971c49.469 69.256 84.097 153.353 84.097 247.343 0 227.556-183.034 410.589-410.589 410.589-232.502 0-415.536-183.034-415.536-410.589s183.034-410.589 410.589-410.589c98.937 0 187.981 34.628 262.184 93.99l281.971-281.971c9.894-9.894 24.734-14.841 34.628-14.841s24.734 4.947 34.628 14.841c14.841 19.787 14.841 49.469-4.947 69.256zM98.937 549.411c0 173.14 138.512 311.652 311.652 311.652s311.652-138.512 311.652-311.652c0-173.14-138.512-311.652-311.652-311.652s-311.652 138.512-311.652 311.652z" />
<glyph unicode="&#xe919;" glyph-name="calendar" horiz-adv-x="858" d="M820.679 793.646h-188.534v129.386c0 22.181-14.787 36.968-36.968 36.968s-36.968-14.787-36.968-36.968v-129.386h-258.773v129.386c0 22.181-14.787 36.968-36.968 36.968s-36.968-14.787-36.968-36.968v-129.386h-188.534c-22.181 0-36.968-14.787-36.968-36.968v-783.711c0-22.181 14.787-36.968 36.968-36.968h602.57c11.090 0 18.484 3.697 25.877 11.090l181.141 181.141c7.394 7.394 11.090 14.787 11.090 25.877v602.57c0 22.181-14.787 36.968-36.968 36.968zM73.935 719.711h151.567v-92.419c0-22.181 14.787-36.968 36.968-36.968s36.968 14.787 36.968 36.968v92.419h255.076v-92.419c0-22.181 14.787-36.968 36.968-36.968s36.968 14.787 36.968 36.968v92.419h151.567v-484.274h-188.534c-22.181 0-36.968-14.787-36.968-36.968v-192.231h-480.578v713.473zM632.144 17.329v147.87h144.173l-144.173-147.87z" />
<glyph unicode="&#xe91a;" glyph-name="send" horiz-adv-x="1667" d="M59.535 388.465h1428.837l-261.953-357.209c-17.86-23.814-11.907-65.488 11.907-83.349s65.488-11.907 83.349 11.907l333.395 452.465c0 0 0 5.953 5.953 5.953 0 0 0 5.953 5.953 5.953 5.953 11.907 5.953 29.767 0 41.674 0 0 0 5.953-5.953 5.953 0 0 0 5.953-5.953 5.953l-333.395 452.465c-11.907 23.814-29.767 29.767-47.628 29.767-11.907 0-23.814-5.953-35.721-11.907-23.814-17.86-29.767-59.535-11.907-83.349l261.953-357.209h-1428.837c-35.721 0-59.535-23.814-59.535-59.535s23.814-59.535 59.535-59.535z" />
</font>
</defs>
</svg>
